<svg xmlns="http://www.w3.org/2000/svg" xmlns:xlink="http://www.w3.org/1999/xlink" width="500" zoomAndPan="magnify" viewBox="0 0 375 374.999991" height="500" preserveAspectRatio="xMidYMid meet" version="1.0"><defs><g/></defs><g fill="#f1efef" fill-opacity="1"><g transform="translate(35.638375, 165.101459)"><g><path d="M 58.621094 -74.757812 C 58.457031 -75.496094 57.894531 -75.441406 57.425781 -75.398438 C 57.332031 -75.386719 56.992188 -74.976562 56.710938 -74.949219 C 56.34375 -74.820312 55.6875 -74.757812 55.21875 -74.710938 C 51.105469 -74.21875 47.042969 -73.160156 43.058594 -72.300781 C 38.800781 -71.324219 34.511719 -70.625 30.246094 -69.738281 L 28.492188 -69.285156 C 28.457031 -69.660156 28.335938 -69.929688 28.121094 -70.195312 C 27.402344 -70.785156 26.960938 -71.40625 26.15625 -71.894531 C 24.753906 -72.707031 22.507812 -73.433594 20.96875 -72.71875 C 18.789062 -71.75 20.039062 -69.601562 18.984375 -67.792969 C 17.703125 -65.398438 12.230469 -66.195312 9.792969 -65.011719 C 8.703125 -64.527344 8.289062 -63.921875 8.292969 -62.878906 C 8.148438 -58.511719 13.828125 -58.496094 16.785156 -59.253906 C 16.328125 -57.128906 11.023438 -33.714844 10.929688 -33.707031 C 11.089844 -34.003906 11.25 -34.304688 11.316406 -34.59375 C 11.125 -33.628906 10.714844 -31.035156 10.257812 -30.894531 C 10.339844 -31 10.457031 -31.765625 10.457031 -31.765625 C 10.257812 -31.84375 10.238281 -31.082031 10.144531 -31.074219 C 9.683594 -30.933594 9.148438 -30.597656 8.597656 -30.453125 C 7.386719 -30.238281 5.785156 -30.179688 4.601562 -29.6875 C 4.609375 -29.59375 4.515625 -29.582031 4.421875 -29.574219 C 1.109375 -27.644531 5.476562 -24.566406 8.007812 -24.8125 C 6.917969 -21.394531 6.589844 -17.957031 5.59375 -14.546875 C 5.195312 -12.804688 4.597656 -11.136719 4.105469 -9.386719 L 3.328125 -6.664062 C 3.347656 -6.476562 3.109375 -5.03125 3.210938 -4.949219 L 2.878906 -3.496094 C 2.945312 -3.785156 3.136719 -4.75 3.136719 -4.75 C 2.675781 -4.613281 2.195312 -0.78125 2.054688 -0.292969 C 1.355469 1.289062 0.441406 2.605469 0.425781 4.40625 C 0.46875 8.753906 4.648438 11.851562 8.449219 12.996094 C 14.59375 14.863281 20.675781 9.257812 24.847656 5.449219 C 26.925781 3.449219 28.710938 1.382812 30.59375 -0.691406 C 31.871094 -2.140625 33.480469 -4.09375 33.964844 -5.9375 C 34.523438 -7.980469 33.550781 -8.265625 31.945312 -7.257812 C 28.5625 -5.039062 25.304688 -2.546875 21.921875 -0.324219 C 18.457031 1.996094 14.417969 5.226562 10.363281 6.378906 C 10.234375 6.011719 10.5 4.851562 10.191406 4.597656 C 9.882812 4.34375 9.707031 6.441406 9.679688 6.160156 C 9.609375 4.464844 10.308594 2.882812 10.707031 1.140625 C 11.316406 -1.378906 11.925781 -3.898438 12.625 -6.425781 C 13.785156 -11.082031 14.949219 -15.640625 15.910156 -20.371094 L 16.699219 -23.949219 C 16.910156 -24.726562 17.132812 -27.304688 17.652344 -27.828125 C 18.609375 -28.675781 20.972656 -28.714844 22.171875 -29.023438 C 23.746094 -29.363281 24.332031 -30.175781 25.625 -30.492188 C 27.378906 -30.945312 29.03125 -31.484375 30.792969 -31.84375 C 31.710938 -32.121094 33.203125 -32.359375 33.992188 -33.003906 C 34.800781 -33.460938 34.40625 -33.613281 35.140625 -33.875 C 36.507812 -34.382812 38.515625 -34.199219 39.632812 -35.347656 C 40.320312 -36.078125 40.519531 -36.949219 39.359375 -37.214844 C 39.160156 -37.289062 38.925781 -36.796875 38.652344 -36.675781 L 37.433594 -36.554688 C 35.285156 -36.253906 33.25 -35.773438 31.121094 -35.28125 C 27.136719 -34.421875 23.039062 -33.742188 18.960938 -32.875 C 19.367188 -34.523438 23.117188 -49.554688 24.621094 -54.523438 C 23.96875 -52.472656 22.839844 -48.484375 22.015625 -45.28125 C 22.625 -47.800781 23.335938 -50.238281 24.035156 -52.765625 L 25.523438 -57.925781 C 25.65625 -58.503906 26.324219 -62.355469 26.878906 -62.503906 C 26.71875 -62.203125 26.734375 -62.015625 26.761719 -61.734375 C 26.933594 -61.941406 27.09375 -62.238281 27.066406 -62.519531 L 28.726562 -62.964844 C 29.636719 -63.335938 30.640625 -63.71875 31.558594 -63.996094 C 33.230469 -64.347656 35.011719 -64.519531 36.632812 -65.339844 C 37.273438 -65.589844 37.066406 -65.761719 37.976562 -66.132812 C 38.699219 -66.488281 39.542969 -66.566406 40.285156 -66.734375 C 42.132812 -67.199219 43.953125 -67.941406 45.792969 -68.5 C 47.546875 -68.953125 49.375 -69.601562 50.894531 -70.507812 C 50.980469 -70.609375 51.054688 -70.804688 50.945312 -70.984375 C 51.300781 -71.207031 51.582031 -71.234375 51.882812 -71.074219 C 52.605469 -71.429688 53.457031 -71.417969 54.28125 -71.6875 C 55.285156 -72.066406 58.980469 -72.992188 58.621094 -74.757812 Z M 13.949219 -36.742188 C 13.011719 -33.71875 11.945312 -31.058594 10.996094 -28.128906 L 14.230469 -40.648438 C 14.746094 -43.160156 15.644531 -45.613281 16.34375 -48.140625 C 15.554688 -44.5625 15.113281 -40.355469 13.949219 -36.742188 Z M 18.886719 -33.625 C 19.027344 -33.164062 18.867188 -32.867188 18.585938 -32.839844 L 19.511719 -35.957031 Z M 25.066406 -55.796875 C 25.074219 -55.703125 25 -55.507812 25 -55.507812 C 24.992188 -55.601562 25.074219 -55.703125 25.066406 -55.796875 Z M 25.066406 -55.796875 C 25.152344 -55.902344 25.144531 -55.996094 25.238281 -56.003906 C 25.144531 -55.996094 25.152344 -55.902344 25.066406 -55.796875 Z M 24.839844 -55.207031 L 24.621094 -54.523438 Z M 24.839844 -55.207031 "/></g></g></g><g fill="#f1efef" fill-opacity="1"><g transform="translate(79.228182, 160.880208)"><g><path d="M 35.183594 -27.539062 C 34.007812 -26.003906 33.390625 -23.578125 32.523438 -21.792969 C 31.195312 -18.917969 29.855469 -16.140625 28.421875 -13.351562 C 25.722656 -7.980469 23.035156 -2.515625 19.636719 2.453125 C 18.234375 4.574219 15.320312 9.683594 12.097656 9.617188 C 9.71875 9.46875 9.328125 5.4375 9.15625 3.65625 C 9.007812 2.15625 8.957031 0.648438 9.007812 -0.777344 C 9.019531 -1.628906 9.5 -4.515625 8.957031 -5.21875 L 8.480469 -2.335938 C 8.464844 -3.46875 8.535156 -4.707031 8.707031 -5.859375 C 8.59375 -6.035156 9.183594 -8.742188 9.289062 -9.605469 C 9.578125 -11.527344 9.863281 -13.445312 10.246094 -15.375 C 10.53125 -17.296875 10.828125 -19.121094 11.21875 -20.957031 C 11.523438 -22.691406 12.097656 -23.597656 13.003906 -25.011719 C 16.710938 -30.667969 20.003906 -36.761719 23.011719 -42.824219 C 24.113281 -45.109375 24.777344 -47.0625 26.199219 -49 C 28.304688 -51.664062 29.546875 -55.476562 30.753906 -58.621094 C 32.816406 -63.742188 35.535156 -70.816406 34.417969 -76.480469 L 34.375 -76.949219 L 34.269531 -77.035156 C 33.355469 -80.636719 29.5625 -84.621094 25.5625 -82.910156 C 23.472656 -82.046875 22.09375 -79.640625 20.9375 -77.921875 L 19.0625 -74.804688 C 18.648438 -74.195312 18.128906 -72.726562 17.730469 -71.933594 L 17.816406 -72.035156 L 15.316406 -66.589844 L 15.910156 -68.253906 C 15.433594 -68.300781 13.761719 -64.070312 13.527344 -63.574219 C 12.667969 -61.695312 11.902344 -59.824219 11.230469 -57.960938 C 9.71875 -54.027344 8.214844 -50.003906 7.386719 -45.851562 C 6.464844 -41.695312 5.347656 -37.613281 4.332031 -33.445312 C 3.789062 -31.214844 3.257812 -28.894531 2.8125 -26.671875 C 2.421875 -24.839844 1.390625 -21.804688 1.851562 -19.957031 L 2.132812 -19.984375 C 1.917969 -19.300781 1.792969 -18.625 1.667969 -17.953125 C 1.707031 -18.523438 1.644531 -19.179688 1.71875 -19.375 C 1.3125 -18.675781 1.625 -16.433594 1.550781 -16.238281 C 0.820312 -11.054688 -0.09375 -5.859375 0.0390625 -0.570312 C 0.238281 4.425781 0.875 10.988281 5.167969 14.261719 C 9.964844 17.867188 14.761719 14.65625 18.082031 10.835938 C 21.988281 6.199219 25.160156 0.875 28.0625 -4.328125 C 30.722656 -9.125 32.695312 -14.144531 35.074219 -18.914062 C 36.015625 -20.898438 37.054688 -22.894531 37.417969 -25.007812 C 37.648438 -26.546875 37.125 -29.996094 35.183594 -27.539062 Z M 20.214844 -59.964844 C 21.65625 -64.648438 23.085938 -69.421875 25.300781 -73.894531 C 25.859375 -74.988281 29.53125 -81.023438 29.824219 -76.035156 L 29.835938 -75.941406 C 30.15625 -70.675781 27.316406 -64.816406 25.503906 -60.097656 L 22.273438 -52.40625 C 21.179688 -50.027344 19.199219 -46.996094 18.6875 -44.488281 C 19.105469 -46.042969 20.582031 -48.363281 21.289062 -49.847656 C 22.46875 -52.328125 23.460938 -54.792969 24.546875 -57.261719 C 26.304688 -61.59375 28.230469 -66.136719 29.386719 -70.789062 C 26.386719 -57.820312 19.644531 -45.335938 13.789062 -33.507812 C 15.707031 -42.023438 17.554688 -51.285156 20.214844 -59.964844 Z M 16.582031 -66.238281 C 17.34375 -68.109375 18.886719 -69.773438 19.660156 -71.550781 C 18.074219 -67.421875 15.980469 -63.625 14.28125 -59.675781 C 14.273438 -59.769531 14.253906 -59.957031 14.339844 -60.058594 C 14.984375 -62.203125 15.738281 -64.167969 16.582031 -66.238281 Z M 3.554688 -16.050781 C 3.480469 -15.855469 3.488281 -15.761719 3.488281 -15.761719 C 2.617188 -13.027344 2.871094 -9.457031 2.578125 -6.589844 C 2.550781 -5.925781 2.414062 -5.34375 2.480469 -4.6875 L 2.453125 -4.96875 L 2.460938 -1.941406 C 2.320312 -5.335938 2.359375 -8.839844 2.699219 -12.183594 L 2.707031 -12.089844 C 2.78125 -14.273438 3.058594 -16.289062 3.433594 -16.324219 C 3.613281 -16.4375 3.640625 -16.15625 3.554688 -16.050781 Z M 3.554688 -16.050781 "/></g></g></g><g fill="#f1efef" fill-opacity="1"><g transform="translate(112.412676, 157.666611)"><g><path d="M 52.484375 -27.699219 C 51.914062 -30.671875 49.289062 -27.484375 48.433594 -26.550781 C 46.96875 -25.082031 45.390625 -23.792969 43.921875 -22.328125 C 39.664062 -18.414062 35.707031 -14.339844 31.746094 -10.265625 C 33.039062 -15.5 35.171875 -20.816406 37.539062 -25.683594 C 38.011719 -26.675781 38.398438 -27.566406 38.101562 -28.671875 C 37.390625 -31.15625 33.914062 -31.863281 31.699219 -31.269531 C 29.769531 -30.703125 29.671875 -29.746094 29.421875 -28.398438 C 28.902344 -25.984375 26.382812 -23.65625 24.960938 -21.722656 C 24.375 -20.90625 20.488281 -15.136719 20.394531 -15.128906 C 20.675781 -15.15625 20.84375 -15.359375 21.023438 -15.472656 C 19.167969 -13.117188 16.199219 -10.558594 13.859375 -8.34375 C 12.910156 -7.402344 10.199219 -4.109375 8.550781 -4.519531 C 3.914062 -5.488281 11.453125 -24.386719 11.164062 -24.453125 C 10.875 -24.519531 8.589844 -16.824219 8.097656 -15.074219 C 9.152344 -19.8125 10.6875 -24.503906 12.332031 -29.015625 C 12.273438 -28.632812 12.066406 -27.855469 12.253906 -27.871094 C 12.542969 -27.804688 13.648438 -31.035156 13.359375 -31.101562 C 13.265625 -31.09375 13.179688 -30.988281 13.085938 -30.980469 C 13.332031 -31.382812 13.78125 -31.617188 13.914062 -32.195312 C 14.078125 -33.441406 12.546875 -34.617188 11.476562 -34.894531 C 9.136719 -35.613281 6.640625 -34.046875 5.816406 -31.789062 C 5.570312 -31.386719 5.355469 -30.707031 5.183594 -30.5 C 4.957031 -29.910156 4.507812 -29.675781 4.1875 -29.078125 C 3.328125 -27.195312 2.964844 -25.078125 2.398438 -23.132812 C 2.195312 -22.261719 -0.175781 -12.570312 0.300781 -12.519531 L 0.472656 -12.726562 C 0.347656 -12.050781 0.324219 -11.292969 0.296875 -10.628906 C 0.0976562 -10.703125 0.324219 -11.292969 0.136719 -11.273438 C -0.808594 -11.277344 -0.601562 -5.242188 -0.445312 -4.59375 C -0.0742188 -2.738281 1.371094 -0.511719 3.242188 0.253906 C 4.132812 0.640625 5.273438 0.71875 6.289062 0.433594 C 6.664062 0.394531 8.371094 -0.527344 7.714844 -0.464844 L 8.257812 -0.707031 L 8.089844 -0.5 C 8.191406 -0.414062 11.421875 -2.242188 11.964844 -2.484375 C 14.578125 -3.871094 16.710938 -6.253906 18.480469 -8.507812 L 24.070312 -15.296875 C 25.339844 -16.835938 26.347656 -19.113281 27.738281 -20.382812 C 27.148438 -17.675781 26.5625 -14.96875 26.066406 -12.269531 C 25.332031 -9.078125 25.144531 -5.179688 23.914062 -2.222656 C 22.914062 0.148438 20.019531 2.507812 18.410156 4.460938 C 16.105469 7.050781 13.804688 9.640625 11.695312 12.304688 C 8.75 16.089844 6.226562 20.308594 3.691406 24.433594 C 1.082031 28.757812 -2.488281 34.875 1.734375 39.386719 C 4.597656 42.609375 9.496094 44.3125 13.605469 42.78125 C 17.359375 41.46875 18.550781 38.136719 20.132812 34.957031 C 25.171875 24.4375 27.335938 12.589844 29.742188 1.285156 C 30.152344 -0.363281 30.253906 -3.214844 31.0625 -4.617188 C 31.875 -6.019531 33.640625 -7.328125 34.664062 -8.46875 C 37.234375 -11.269531 39.902344 -13.988281 42.582031 -16.613281 L 50.113281 -23.875 C 51.242188 -24.929688 52.847656 -25.9375 52.484375 -27.699219 Z M 16.886719 24.859375 L 16.894531 24.953125 L 16.59375 25.742188 L 16.601562 25.835938 C 16.507812 25.84375 16.515625 25.9375 16.515625 25.9375 C 16.527344 26.03125 16.449219 26.226562 16.449219 26.226562 C 15.722656 28.476562 14.804688 30.738281 13.785156 32.921875 C 12.917969 34.707031 11.777344 37.5625 9.871094 38.410156 C 6.246094 40.085938 5.367188 33.925781 5.730469 31.808594 C 6.644531 26.609375 9.96875 21.839844 12.765625 17.5 C 15.640625 12.964844 18.734375 8.785156 22.320312 4.746094 C 20.695312 11.433594 19.082031 18.214844 16.886719 24.859375 Z M 22.195312 23.023438 C 22.460938 21.859375 23 20.578125 23.546875 19.390625 C 23.148438 21.132812 22.84375 22.863281 21.976562 24.652344 L 21.277344 26.234375 C 21.550781 25.164062 21.816406 24.003906 22.195312 23.023438 Z M 24.394531 12.496094 L 23.105469 16.78125 C 23.210938 15.921875 23.308594 14.964844 23.628906 14.367188 C 23.921875 13.488281 24.527344 11.914062 24.238281 10.902344 C 24.378906 11.359375 24.535156 12.007812 24.394531 12.496094 Z M 22.164062 20.753906 L 22.484375 20.15625 C 22.410156 20.351562 22.335938 20.546875 22.164062 20.753906 Z M 22.164062 20.753906 "/></g></g></g><g fill="#f1efef" fill-opacity="1"><g transform="translate(160.220838, 153.036853)"><g><path d="M 45.53125 -27.214844 C 45.238281 -29.269531 43.722656 -27.324219 43.230469 -26.519531 C 42.1875 -24.621094 41.242188 -22.636719 40.289062 -20.746094 C 38.132812 -16.65625 35.972656 -12.566406 33.417969 -8.628906 C 24.917969 4.210938 29.613281 -17.628906 28.882812 -17.371094 C 28.515625 -17.238281 28.371094 -15.804688 28.304688 -15.515625 C 28.730469 -18.964844 29.746094 -23.132812 31.207031 -26.585938 C 32.039062 -28.746094 33.09375 -30.550781 31.003906 -32.621094 C 27.125 -36.503906 23.464844 -32.269531 21.496094 -29.144531 C 20.214844 -32.617188 17.832031 -37.6875 13.238281 -37.242188 C 11.175781 -37.042969 10.054688 -35.890625 8.769531 -34.535156 C 7.980469 -33.894531 7.332031 -33.734375 6.644531 -33.007812 C 5.507812 -32.042969 4.792969 -30.652344 4.054688 -29.445312 C 1.324219 -24.449219 -0.355469 -18.324219 -0.859375 -12.785156 C -1.074219 -10.117188 -0.980469 -7.191406 0.0234375 -4.640625 C 0.636719 -3.183594 2.652344 0.0273438 4.78125 -0.464844 C 4.875 -0.472656 4.679688 -0.546875 4.378906 -0.707031 C 5.726562 -0.460938 7.210938 -0.792969 8.261719 -1.652344 C 8.375 -1.472656 7.292969 -0.894531 7.292969 -0.894531 C 8.480469 0.597656 15.269531 -9.425781 15.75 -10.324219 C 16.804688 -12.132812 17.476562 -13.992188 18.429688 -15.882812 C 19.144531 -17.277344 20.292969 -19.09375 21.09375 -20.589844 C 21.066406 -19.925781 21.148438 -19.082031 21.148438 -19.082031 C 19.976562 -13.574219 18.945312 -7.605469 21.730469 -2.292969 C 23.035156 0.417969 25.820312 2.796875 28.953125 1.925781 C 31.722656 1.1875 33.800781 -1.757812 35.28125 -4.078125 C 37.105469 -6.714844 38.625 -9.605469 40.132812 -12.59375 C 41.386719 -15.269531 42.550781 -17.9375 43.496094 -20.867188 C 44.074219 -22.722656 45.925781 -25.078125 45.53125 -27.214844 Z M 18.6875 -23.953125 C 18.28125 -23.25 17.878906 -22.550781 17.566406 -21.855469 L 15.464844 -18.152344 C 14.097656 -15.652344 12.628906 -13.242188 11.054688 -10.910156 C 10.652344 -10.210938 8.683594 -7.085938 7.71875 -7.277344 C 6.265625 -7.609375 7.292969 -12.628906 7.410156 -13.398438 C 7.5625 -14.738281 11.132812 -29.65625 12.417969 -30.0625 C 10.722656 -29.996094 6.925781 -12.5 6.78125 -11.066406 C 7.085938 -15.730469 8.339844 -20.394531 9.804688 -24.796875 C 10.628906 -27.050781 12.417969 -32.996094 15.511719 -33.296875 C 17.199219 -33.460938 17.910156 -30.027344 18.300781 -28.929688 C 18.1875 -29.109375 17.082031 -31.746094 16.996094 -31.644531 C 16.566406 -31.222656 18.9375 -26.25 19.011719 -25.5 C 19.085938 -24.75 19.085938 -24.75 18.6875 -23.953125 Z M 21.289062 -19.566406 C 21.289062 -19.566406 21.441406 -20.90625 21.511719 -21.199219 L 21.914062 -21.898438 Z M 19.320312 -25.246094 L 19.230469 -26.183594 C 19.546875 -25.835938 19.574219 -25.554688 19.320312 -25.246094 Z M 19.320312 -25.246094 "/></g></g></g><g fill="#f1efef" fill-opacity="1"><g transform="translate(222.329973, 232.136235)"><g><path d="M 50.066406 -37.039062 C 49.824219 -38.117188 43.136719 -38.984375 42.019531 -39.148438 C 38.535156 -39.636719 35.085938 -39.71875 31.503906 -39.78125 C 31.761719 -44.210938 33.371094 -48.90625 34.039062 -53.371094 C 34.359375 -55.742188 33.613281 -56.359375 30.957031 -56.789062 C 25.507812 -57.636719 22.886719 -54.90625 21.699219 -50.113281 C 21.078125 -47.992188 21.101562 -46.339844 20.890625 -44.257812 C 20.859375 -43.152344 20.753906 -39.980469 20.125 -39.367188 C 19.375 -38.609375 16.363281 -38.453125 15.269531 -38.347656 C 12.558594 -37.949219 9.832031 -37.683594 6.996094 -37.132812 C 3.738281 -36.679688 1.167969 -37.671875 1.425781 -33.566406 C 2.035156 -23.035156 12.019531 -26.476562 18.65625 -27.53125 C 18.214844 -25.011719 17.589844 -21.515625 17.839844 -18.925781 C 17.945312 -17.832031 18.136719 -17.300781 18.214844 -16.484375 C 18.195312 -15.246094 17.90625 -13.976562 17.890625 -12.738281 C 18.125 -10.285156 19.128906 -8.457031 20.59375 -10.386719 C 21.332031 -11.28125 21.292969 -11.691406 21.089844 -12.359375 L 21.539062 -11.992188 C 23.699219 -15.226562 25.414062 -18.832031 26.859375 -22.410156 L 28.796875 -27.964844 C 29.527344 -30.375 30.53125 -29.921875 32.835938 -30.28125 C 34.308594 -30.699219 35.917969 -31.128906 37.539062 -31.425781 C 38.632812 -31.53125 39.84375 -31.785156 40.910156 -32.164062 C 41.578125 -32.367188 42.453125 -33.277344 42.847656 -33.453125 C 44.171875 -33.992188 50.765625 -34.082031 50.066406 -37.039062 Z M 20.847656 -21.96875 C 20.679688 -20.851562 20.179688 -17.5 20.417969 -15.046875 C 18.914062 -22.054688 20.257812 -29.476562 21.65625 -36.351562 C 22.375 -40.273438 22.5 -44.6875 23.328125 -48.894531 C 22.441406 -43.859375 22.4375 -38.21875 21.917969 -33.625 C 21.472656 -29.730469 21.160156 -25.847656 20.847656 -21.96875 Z M 20.847656 -21.96875 "/></g></g></g><g fill="#f1efef" fill-opacity="1"><g transform="translate(24.7823, 304.109776)"><g><path d="M 66.625 -2.882812 C 65.253906 -0.753906 62.355469 1.839844 59.679688 2.414062 C 58.648438 2.617188 57.578125 2.40625 56.507812 2.195312 C 56.070312 2.027344 52.050781 0.632812 52.070312 0.839844 L 52.652344 1.414062 C 50.65625 0.347656 48.242188 -1.835938 46.300781 -3.433594 C 43.445312 -5.78125 40.511719 -7.914062 37.5625 -10.148438 C 36.628906 -11.109375 28.269531 -19.332031 24.519531 -23.378906 C 25.730469 -21.710938 27.617188 -19.585938 28.570312 -18.417969 C 25.429688 -21.578125 22.785156 -24.996094 20.132812 -28.523438 C 25.386719 -31.761719 30.433594 -36.03125 34.515625 -40.523438 C 35.9375 -42.128906 36.917969 -43.90625 38.453125 -45.421875 C 40.644531 -47.734375 42.597656 -50.339844 44.789062 -52.652344 C 45.832031 -53.800781 47.179688 -55.085938 47.996094 -56.425781 C 48.8125 -57.765625 49.117188 -58.953125 50.148438 -60.207031 C 52.207031 -62.820312 53.847656 -65.394531 55.699219 -67.992188 C 58.277344 -71.707031 60.246094 -75.257812 59.082031 -79.660156 L 59.0625 -79.871094 C 58.457031 -81.808594 56.285156 -85.796875 54.046875 -86.105469 C 52.457031 -86.265625 52.890625 -85.050781 52.679688 -83.976562 C 51.503906 -77.667969 46.867188 -71.335938 43.394531 -65.960938 C 39.632812 -60.34375 35.144531 -55.707031 31.144531 -50.382812 C 27.113281 -45.371094 22.816406 -40.964844 18.101562 -36.515625 C 18.621094 -39.824219 20.199219 -43.023438 20.511719 -46.308594 C 20.550781 -48.097656 20.71875 -49.585938 21.289062 -51.320312 L 22.707031 -56.183594 C 23.457031 -59.300781 24.214844 -62.316406 25.074219 -65.339844 C 25.601562 -67.492188 26.535156 -69.789062 26.949219 -72.035156 C 27.140625 -73.3125 26.859375 -74.019531 27.175781 -75.101562 C 28.144531 -78.136719 31.042969 -80.726562 27.160156 -82.871094 C 25.257812 -84.054688 21.195312 -84.816406 20.074219 -82.292969 C 20.082031 -82.1875 20.207031 -81.988281 20.320312 -81.894531 L 19.765625 -80.054688 C 19.175781 -78.527344 18.695312 -77.011719 18.410156 -75.617188 C 16.171875 -68.363281 14.566406 -61.066406 12.847656 -53.863281 C 11.117188 -45.714844 8.960938 -37.628906 7.4375 -29.5 C 7.011719 -26.304688 6.886719 -23.25 6.035156 -20.121094 C 5.054688 -16.140625 4.28125 -12.179688 3.730469 -8.132812 C 3.015625 -3.546875 1.515625 1.535156 5.039062 5.394531 C 6.230469 6.855469 9.941406 10.484375 11.136719 7.640625 C 11.746094 6.320312 11.429688 4.144531 11.609375 2.761719 L 12.335938 -2.769531 C 12.953125 -7.242188 13.570312 -11.710938 14.488281 -16.316406 C 15.238281 -19.4375 15.050781 -22.464844 15.695312 -25.570312 L 17.917969 -22.109375 C 18.355469 -21.941406 18.699219 -21.660156 18.84375 -21.253906 C 18.539062 -21.121094 18.464844 -20.796875 18.601562 -20.496094 C 19.3125 -18.570312 20.949219 -16.839844 22.152344 -15.273438 C 22.867188 -14.398438 29.953125 -5.210938 30.132812 -5.542969 L 30.113281 -5.75 L 31.625 -4.21875 C 31.4375 -3.988281 31.066406 -4.582031 30.972656 -4.46875 C 30.3125 -3.671875 35.757812 1.578125 36.316406 1.945312 C 37.679688 2.96875 38.933594 4 40.207031 5.242188 C 40.800781 5.921875 41.496094 6.589844 42.386719 7.132812 C 42.605469 7.21875 44.039062 7.917969 43.695312 7.636719 C 43.800781 7.625 44.019531 7.710938 44.246094 7.898438 C 44.027344 7.816406 43.925781 7.824219 43.820312 7.835938 C 43.859375 8.25 49.769531 11.773438 50.214844 12.046875 C 52.1875 12.90625 54.320312 13.226562 56.570312 12.585938 C 62.296875 10.980469 65.921875 5.0625 68.394531 0.203125 C 68.917969 -0.898438 69.148438 -1.761719 68.921875 -3 C 68.234375 -5.769531 67.449219 -4.117188 66.625 -2.882812 Z M 11.066406 -32.160156 C 10.96875 -32.046875 10.980469 -31.941406 10.992188 -31.835938 C 10.363281 -27.472656 9.953125 -23.019531 9.128906 -18.527344 C 8.410156 -15.097656 7.371094 -11.742188 6.746094 -8.425781 C 7.90625 -17.046875 9.785156 -25.839844 11.363281 -34.5 Z M 32.40625 -14.585938 L 34.386719 -12.574219 C 33.464844 -13.429688 32.4375 -14.273438 31.609375 -15.246094 Z M 23.242188 -24.621094 L 22.632812 -25.507812 C 22.640625 -25.402344 22.878906 -25.113281 23.242188 -24.621094 Z M 23.832031 -23.945312 L 23.367188 -24.425781 Z M 23.832031 -23.945312 "/></g></g></g><g fill="#f1efef" fill-opacity="1"><g transform="translate(84.399534, 298.336424)"><g><path d="M 45.355469 -30.542969 C 45.355469 -30.542969 45.46875 -30.449219 45.34375 -30.648438 C 44.753906 -31.328125 44.078125 -30.734375 43.367188 -30.457031 C 40.410156 -29.539062 37.359375 -28.511719 34.289062 -27.6875 C 35.070312 -31.542969 35.832031 -35.609375 35.875 -39.5 C 35.941406 -40.976562 35.894531 -42.546875 35.441406 -43.972656 C 35.144531 -44.890625 34.742188 -45.796875 34.140625 -46.578125 C 34.140625 -46.578125 32.742188 -48.019531 33.132812 -47.214844 L 33.019531 -47.308594 L 32.523438 -48.101562 L 32.980469 -47.726562 C 33.023438 -48.359375 31.140625 -49.332031 31.140625 -49.332031 C 28.289062 -51.683594 24.558594 -53.316406 21.214844 -50.996094 C 19.148438 -49.539062 17.582031 -47.285156 16.328125 -45.0625 C 15.878906 -44.285156 15.4375 -43.402344 15.101562 -42.527344 C 14.765625 -41.65625 14.402344 -38.890625 13.820312 -38.414062 C 13.339844 -37.945312 11.789062 -37.691406 11.101562 -37.203125 C 10.101562 -36.6875 9.214844 -36.078125 8.441406 -35.371094 C 6.585938 -33.933594 5.195312 -32.011719 3.910156 -30.101562 C 1.738281 -26.53125 0.851562 -22.664062 -0.59375 -19.164062 C -3.308594 -12.492188 1.136719 -4.519531 7.570312 -2.097656 C 9.636719 -1.351562 11.964844 -1.160156 14.027344 -1.570312 C 16.183594 -2.09375 18.152344 -3.4375 19.695312 -4.847656 C 21.144531 -6.144531 24.378906 -8.558594 24.832031 -10.386719 C 24.820312 -10.492188 24.625 -10.367188 24.339844 -10.023438 L 27.015625 -13.855469 C 27.128906 -13.761719 26.398438 -12.640625 26.398438 -12.640625 C 27.15625 -12.398438 30.367188 -18.273438 30.746094 -18.730469 C 31.351562 -20.050781 31.949219 -21.472656 32.660156 -22.804688 C 33.300781 -23.808594 33.101562 -23.6875 34.101562 -24.203125 C 34.007812 -24.089844 35.320312 -24.636719 35.527344 -24.65625 C 36.652344 -24.976562 48.746094 -26.988281 45.355469 -30.542969 Z M 11.386719 -6.039062 L 11.285156 -6.027344 C 2.769531 -3.945312 10.984375 -23.226562 11.09375 -24.285156 L 10.558594 -23.289062 C 11.816406 -26.5625 13.03125 -29.199219 13.679688 -30.101562 C 15.328125 -25.011719 21.136719 -23.578125 25.777344 -23.398438 C 23.34375 -17.070312 18.542969 -8.097656 11.386719 -6.039062 Z M 29.097656 -36.847656 C 28.648438 -33.863281 28.398438 -29.953125 27.089844 -27.199219 C 26.667969 -26.109375 26.953125 -26.453125 25.929688 -26.144531 C 25.328125 -25.875 23.953125 -25.953125 23.320312 -25.996094 C 22.164062 -25.988281 20.792969 -26.066406 19.890625 -26.714844 C 18.3125 -27.820312 18.328125 -29.816406 18.363281 -31.605469 C 18.402344 -33.394531 18.761719 -35.109375 19.222656 -36.835938 C 19.476562 -37.492188 21.128906 -41.011719 20.757812 -41.605469 C 20.625 -41.90625 19.660156 -39.925781 19.566406 -39.808594 C 20.078125 -41.015625 20.644531 -41.699219 21.09375 -42.480469 C 20.988281 -42.46875 21.082031 -42.582031 21.167969 -42.800781 L 21.175781 -42.695312 L 21.261719 -42.914062 C 21.261719 -42.914062 21.25 -43.019531 21.355469 -43.03125 C 22.714844 -45.261719 26.109375 -50.316406 28.503906 -47.292969 C 30.328125 -44.738281 29.363281 -39.5 29.097656 -36.847656 Z M 21.261719 -42.914062 L 21.355469 -43.03125 C 21.363281 -42.925781 21.261719 -42.914062 21.261719 -42.914062 Z M 21.261719 -42.914062 "/></g></g></g><g fill="#f1efef" fill-opacity="1"><g transform="translate(125.080758, 294.396841)"><g><path d="M 38.941406 -28.453125 C 38.488281 -29.878906 37.636719 -30.007812 36.636719 -29.488281 C 34.75 -28.363281 32.972656 -26.089844 31.222656 -24.660156 C 27.21875 -21.539062 23.164062 -18.941406 18.804688 -16.210938 C 18.796875 -16.3125 18.671875 -16.511719 18.539062 -16.8125 C 18.691406 -16.304688 18.609375 -16.085938 18.515625 -15.972656 C 17.039062 -20.34375 15.566406 -24.71875 14.289062 -29.214844 C 14.898438 -27.28125 16.15625 -24.039062 17.15625 -21.300781 C 15.796875 -25.582031 14.128906 -30.882812 14.234375 -30.890625 C 14.035156 -30.765625 14.054688 -30.558594 14.074219 -30.351562 C 13.746094 -31.578125 13.28125 -33.109375 13.359375 -34.484375 C 13.3125 -36.054688 14.015625 -37.488281 14.394531 -38.996094 C 14.359375 -38.253906 14.242188 -37.300781 14.242188 -37.300781 C 14.878906 -37.253906 14.921875 -41.144531 14.878906 -41.5625 C 14.714844 -42.175781 13.171875 -44.023438 13.222656 -43.503906 C 10.160156 -45.832031 5.199219 -39.574219 4.609375 -36.996094 C 4.144531 -35.269531 4.316406 -33.503906 4.59375 -31.742188 C 4.867188 -29.984375 5.539062 -28.472656 6.222656 -26.859375 C 6.65625 -25.640625 6.320312 -24.769531 6.554688 -23.425781 C 6.964844 -21.363281 7.894531 -19.355469 8.5 -17.417969 C 9.070312 -15.898438 10.722656 -12.90625 10.550781 -11.417969 C 10.484375 -9.941406 7.484375 -8.390625 6.210938 -7.429688 C 4.554688 -6.113281 2.917969 -4.589844 1.277344 -3.066406 C -1.609375 -0.367188 -4.648438 2.972656 -5.523438 6.941406 C -5.683594 7.480469 -6.1875 9.84375 -5.421875 10.1875 C -5.304688 10.28125 -5.164062 8.480469 -5.082031 8.265625 C -5.769531 15.261719 1.316406 17.9375 7.675781 17.425781 C 14.875 16.941406 19.464844 12.292969 21.339844 5.601562 C 22.105469 2.691406 22.136719 -0.253906 21.75 -3.15625 C 21.558594 -5.132812 21.167969 -6.988281 20.675781 -8.828125 C 20.304688 -10.472656 20.109375 -10.351562 21.164062 -11.398438 C 21.933594 -12.101562 23.144531 -12.640625 23.933594 -13.136719 C 27.09375 -15.226562 29.910156 -17.601562 32.714844 -20.078125 C 34.75 -21.851562 39.691406 -25.058594 38.953125 -28.347656 Z M 0.371094 11.414062 C -2.417969 10.84375 -0.125 6.3125 0.683594 4.871094 C 2.039062 2.636719 4.179688 0.855469 6.117188 -0.800781 L 9.039062 -3.1875 C 9.332031 -3.425781 11.15625 -5.175781 10.554688 -4.90625 L 11.730469 -5.757812 L 11.0625 -5.0625 C 11.261719 -5.1875 11.5625 -5.320312 11.75 -5.550781 C 12.097656 -3.0625 12.339844 -0.566406 11.851562 2.003906 C 11.789062 2.429688 10.214844 6.78125 9.460938 7.695312 L 9.941406 7.230469 C 9.117188 8.464844 8.167969 9.5 6.988281 10.351562 C 6.980469 10.246094 7.855469 9.53125 7.742188 9.4375 L 4.9375 10.863281 C 3.511719 11.316406 1.878906 11.792969 0.371094 11.414062 Z M 13.773438 13.160156 C 11.179688 14.566406 8.628906 15.339844 5.828125 15.714844 C 10.894531 14.910156 15.960938 11.898438 18.566406 7.339844 C 17.644531 9.738281 16.355469 11.648438 13.773438 13.160156 Z M 18.507812 -17.125 C 18.332031 -17.84375 18.023438 -18.863281 17.601562 -19.980469 C 17.917969 -18.855469 18.238281 -17.730469 18.507812 -17.125 Z M 20.90625 -6.4375 C 20.792969 -6.53125 20.773438 -6.738281 20.753906 -6.945312 C 20.773438 -6.738281 20.898438 -6.539062 20.90625 -6.4375 Z M 20.90625 -6.4375 "/></g></g></g><g fill="#f1efef" fill-opacity="1"><g transform="translate(158.791027, 291.132328)"><g><path d="M 37.003906 -58.199219 C 36.761719 -59.644531 35.3125 -58.351562 34.476562 -58.269531 C 30.335938 -57.65625 26.175781 -57.253906 22.136719 -56.652344 C 22.125 -56.757812 22.292969 -57.195312 22.546875 -57.847656 C 22.199219 -57.078125 21.929688 -56.632812 21.617188 -56.601562 C 24.121094 -63.253906 26.839844 -69.921875 30.226562 -76.132812 C 30.144531 -75.914062 28.835938 -73.160156 28.9375 -73.171875 C 29.261719 -73.097656 32.597656 -78.777344 32.628906 -79.515625 C 32.589844 -79.933594 31.753906 -78.800781 31.746094 -78.90625 C 32.308594 -79.589844 33.296875 -80.210938 33.53125 -81.074219 C 34.058594 -83.226562 31.78125 -83.949219 30.191406 -84.109375 C 26.902344 -84.421875 23.300781 -83.652344 21.484375 -80.746094 C 19.738281 -78.164062 18.554688 -75.210938 17.578125 -72.28125 C 17.074219 -70.972656 16.269531 -70.578125 15.550781 -69.355469 C 14.472656 -67.464844 13.839844 -65.304688 13.097656 -63.234375 C 12.433594 -61.386719 11.785156 -59.433594 11.238281 -57.488281 C 10.910156 -56.511719 10.980469 -55.785156 10.074219 -55.378906 C 9.179688 -54.875 7.382812 -55.015625 6.351562 -54.808594 C 2.34375 -53.898438 -1.632812 -53.722656 -5.648438 -52.914062 C -7.71875 -52.605469 -9.800781 -52.40625 -11.707031 -51.484375 C -12.113281 -51.339844 -14.351562 -50.597656 -14.53125 -50.265625 C -15.042969 -49.0625 -12.535156 -49.199219 -12.007812 -49.144531 C -8 -49.007812 -2.96875 -49.078125 0.917969 -50.1875 C 3.570312 -50.96875 6.402344 -51.035156 9.292969 -51.523438 C 8.140625 -48.261719 7.316406 -44.820312 6.496094 -41.378906 L 5.601562 -37.617188 C 5.292969 -36.433594 4.152344 -34.117188 4.273438 -32.867188 C 4.292969 -32.660156 4.554688 -33.210938 4.714844 -33.75 C 4.34375 -32.140625 3.871094 -30.519531 3.605469 -28.917969 C 3.597656 -29.019531 3.789062 -30.300781 3.683594 -30.289062 C 3.164062 -30.238281 1.695312 -23.691406 1.539062 -23.152344 C 0.800781 -19.929688 -0.0429688 -16.695312 -0.238281 -13.316406 C -0.542969 -9.925781 -1.0625 -6.617188 -1.476562 -3.324219 C -1.730469 -1.617188 -1.996094 -0.015625 -2.042969 1.667969 C -2.171875 2.519531 -2.289062 3.476562 -2.207031 4.308594 C -2.1875 4.519531 -2.058594 5.871094 -1.890625 5.433594 L -1.894531 7.535156 L -2.046875 5.976562 C -2.601562 6.761719 -1.652344 10.03125 -1.488281 10.648438 C -0.871094 12.6875 0.351562 14.460938 2.34375 15.527344 C 4.128906 16.613281 6.84375 17.507812 8.726562 16.378906 C 11.207031 14.878906 13.113281 11.753906 14.574219 9.511719 C 17.804688 4.894531 20.699219 0.0976562 23.597656 -4.699219 C 26.210938 -9.15625 28.941406 -13.515625 31.117188 -18.136719 C 32.332031 -20.777344 34.921875 -23.335938 35.585938 -26.238281 C 35.972656 -27.640625 35.5 -29.273438 33.867188 -28.800781 C 32.542969 -28.359375 31.023438 -24.535156 30.292969 -23.414062 C 27 -18.367188 23.925781 -13.238281 20.632812 -8.195312 L 15.3125 -0.222656 C 14.476562 0.910156 13.652344 2.144531 12.710938 3.285156 C 12.347656 3.847656 9.945312 6.179688 10.109375 6.792969 C 10.128906 7 11.183594 5.953125 11.570312 5.601562 C 11.109375 6.277344 10.535156 6.855469 10.066406 7.425781 C 10.160156 7.3125 8.097656 8.773438 7.765625 8.59375 C 5.707031 7.953125 6.890625 1.75 7.0625 0.261719 C 8.117188 -8.347656 10.101562 -17.152344 12.125 -25.539062 C 13.355469 -30.175781 14.609375 -34.605469 16.058594 -39.15625 C 16.785156 -41.429688 17.5 -43.8125 18.328125 -46.097656 L 19.402344 -50.191406 L 18.476562 -47.792969 C 19.023438 -49.734375 19.792969 -52.644531 20.40625 -52.808594 L 20.15625 -52.15625 C 20.335938 -52.488281 20.523438 -52.714844 20.71875 -52.839844 C 21.792969 -53.679688 24.777344 -53.234375 26.128906 -53.363281 C 27.066406 -53.457031 28.222656 -53.460938 29.128906 -53.863281 C 29.730469 -54.132812 29.492188 -54.425781 30.203125 -54.703125 C 31.429688 -55.03125 33.070312 -54.351562 34.382812 -54.898438 C 35.601562 -55.332031 37.261719 -56.648438 37.015625 -58.09375 Z M 17.820312 -50.25 C 14.09375 -39.910156 11.585938 -28.953125 8.835938 -18.289062 C 7.519531 -13.4375 6.328125 -8.386719 5.660156 -3.382812 L 5.332031 -1.355469 C 5.695312 -5.171875 6.175781 -8.894531 6.863281 -12.636719 C 8.375 -20.871094 10.523438 -29.0625 13.222656 -36.992188 C 17.789062 -50.5625 21.640625 -65.007812 28.828125 -77.574219 C 23.984375 -69.015625 21.125 -59.496094 17.820312 -50.25 Z M 23.691406 -61.214844 L 25.722656 -66.242188 C 25.214844 -66.089844 24.5 -63.710938 23.691406 -61.214844 Z M 15.167969 -37.492188 C 14.632812 -35.445312 13.980469 -33.492188 13.332031 -31.539062 C 13.972656 -33.597656 14.5 -35.75 15.234375 -37.921875 C 15.148438 -37.703125 15.160156 -37.597656 15.167969 -37.492188 Z M 22.628906 -58.066406 L 23.449219 -60.457031 C 23.21875 -59.59375 22.882812 -58.722656 22.628906 -58.066406 Z M 6.292969 9.683594 C 6.191406 9.695312 6.074219 9.597656 5.960938 9.503906 Z M 6.292969 9.683594 "/></g></g></g><g fill="#f1efef" fill-opacity="1"><g transform="translate(190.732556, 288.0391)"><g><path d="M 58.253906 -30.742188 C 57.621094 -34.042969 54.707031 -30.503906 53.757812 -29.46875 C 52.128906 -27.839844 50.378906 -26.410156 48.75 -24.78125 C 44.023438 -20.4375 39.628906 -15.917969 35.238281 -11.394531 C 36.667969 -17.203125 39.039062 -23.105469 41.667969 -28.507812 C 42.191406 -29.609375 42.621094 -30.59375 42.289062 -31.824219 C 41.5 -34.582031 37.640625 -35.363281 35.183594 -34.707031 C 33.039062 -34.078125 32.933594 -33.015625 32.65625 -31.519531 C 32.078125 -28.839844 29.28125 -26.257812 27.703125 -24.109375 C 27.054688 -23.207031 22.738281 -16.800781 22.636719 -16.792969 C 22.949219 -16.820312 23.136719 -17.050781 23.332031 -17.171875 C 21.277344 -14.558594 17.980469 -11.71875 15.382812 -9.261719 C 14.328125 -8.214844 11.320312 -4.5625 9.492188 -5.015625 C 4.347656 -6.09375 12.714844 -27.066406 12.390625 -27.140625 C 12.070312 -27.214844 9.535156 -18.671875 8.988281 -16.730469 C 10.160156 -21.988281 11.859375 -27.195312 13.6875 -32.203125 C 13.621094 -31.777344 13.390625 -30.914062 13.597656 -30.933594 C 13.921875 -30.859375 15.148438 -34.445312 14.828125 -34.519531 C 14.722656 -34.511719 14.628906 -34.394531 14.523438 -34.386719 C 14.796875 -34.832031 15.296875 -35.089844 15.445312 -35.734375 C 15.625 -37.117188 13.925781 -38.421875 12.738281 -38.730469 C 10.140625 -39.527344 7.367188 -37.789062 6.457031 -35.285156 C 6.183594 -34.839844 5.941406 -34.078125 5.753906 -33.851562 C 5.503906 -33.195312 5.003906 -32.9375 4.648438 -32.273438 C 3.695312 -30.1875 3.289062 -27.835938 2.660156 -25.675781 C 2.4375 -24.707031 -0.195312 -13.949219 0.335938 -13.894531 L 0.523438 -14.125 C 0.386719 -13.375 0.363281 -12.535156 0.328125 -11.796875 C 0.109375 -11.878906 0.363281 -12.535156 0.152344 -12.511719 C -0.898438 -12.515625 -0.667969 -5.816406 -0.492188 -5.097656 C -0.0859375 -3.039062 1.519531 -0.566406 3.597656 0.28125 C 4.585938 0.710938 5.855469 0.796875 6.976562 0.480469 C 7.394531 0.4375 9.289062 -0.585938 8.5625 -0.515625 L 9.167969 -0.78125 L 8.980469 -0.554688 C 9.09375 -0.460938 12.675781 -2.488281 13.28125 -2.757812 C 16.179688 -4.296875 18.546875 -6.941406 20.511719 -9.445312 L 26.714844 -16.976562 C 28.125 -18.6875 29.246094 -21.210938 30.789062 -22.621094 C 30.132812 -19.617188 29.480469 -16.613281 28.929688 -13.621094 C 28.117188 -10.074219 27.90625 -5.75 26.542969 -2.464844 C 25.433594 0.164062 22.222656 2.785156 20.433594 4.953125 C 17.878906 7.828125 15.320312 10.699219 12.980469 13.65625 C 9.710938 17.859375 6.910156 22.542969 4.097656 27.121094 C 1.199219 31.917969 -2.761719 38.707031 1.921875 43.714844 C 5.105469 47.292969 10.539062 49.183594 15.101562 47.480469 C 19.265625 46.027344 20.589844 42.328125 22.347656 38.796875 C 27.9375 27.121094 30.339844 13.972656 33.011719 1.425781 C 33.464844 -0.40625 33.578125 -3.566406 34.476562 -5.125 C 35.378906 -6.683594 37.339844 -8.132812 38.476562 -9.398438 C 41.324219 -12.507812 44.289062 -15.527344 47.261719 -18.441406 L 55.621094 -26.496094 C 56.871094 -27.667969 58.652344 -28.785156 58.253906 -30.742188 Z M 18.742188 27.59375 L 18.75 27.695312 L 18.417969 28.570312 L 18.425781 28.675781 C 18.320312 28.683594 18.332031 28.789062 18.332031 28.789062 C 18.34375 28.890625 18.257812 29.109375 18.257812 29.109375 C 17.449219 31.605469 16.433594 34.117188 15.300781 36.539062 C 14.339844 38.523438 13.070312 41.691406 10.957031 42.632812 C 6.933594 44.492188 5.957031 37.652344 6.359375 35.304688 C 7.375 29.535156 11.066406 24.242188 14.167969 19.421875 C 17.359375 14.386719 20.792969 9.75 24.773438 5.269531 C 22.96875 12.691406 21.179688 20.214844 18.742188 27.59375 Z M 24.636719 25.550781 C 24.929688 24.261719 25.527344 22.839844 26.136719 21.519531 C 25.691406 23.453125 25.355469 25.378906 24.390625 27.359375 L 23.617188 29.117188 C 23.921875 27.933594 24.214844 26.644531 24.636719 25.550781 Z M 27.074219 13.867188 L 25.644531 18.628906 C 25.761719 17.671875 25.871094 16.609375 26.226562 15.945312 C 26.550781 14.96875 27.222656 13.222656 26.902344 12.097656 C 27.058594 12.609375 27.234375 13.328125 27.074219 13.867188 Z M 24.601562 23.035156 L 24.957031 22.371094 C 24.875 22.589844 24.789062 22.804688 24.601562 23.035156 Z M 24.601562 23.035156 "/></g></g></g><g fill="#f1efef" fill-opacity="1"><g transform="translate(243.795011, 282.900515)"><g><path d="M 50.535156 -30.207031 C 50.207031 -32.484375 48.527344 -30.328125 47.984375 -29.433594 C 46.824219 -27.324219 45.773438 -25.125 44.71875 -23.027344 C 42.320312 -18.488281 39.925781 -13.949219 37.09375 -9.578125 C 27.65625 4.675781 32.871094 -19.566406 32.058594 -19.277344 C 31.652344 -19.132812 31.488281 -17.542969 31.417969 -17.222656 C 31.886719 -21.046875 33.011719 -25.671875 34.636719 -29.507812 C 35.5625 -31.90625 36.730469 -33.910156 34.410156 -36.207031 C 30.105469 -40.515625 26.042969 -35.816406 23.859375 -32.347656 C 22.4375 -36.203125 19.789062 -41.828125 14.691406 -41.332031 C 12.402344 -41.113281 11.160156 -39.835938 9.730469 -38.332031 C 8.855469 -37.617188 8.136719 -37.441406 7.375 -36.632812 C 6.113281 -35.566406 5.316406 -34.019531 4.503906 -32.679688 C 1.46875 -27.132812 -0.394531 -20.335938 -0.953125 -14.191406 C -1.191406 -11.226562 -1.089844 -7.980469 0.0273438 -5.148438 C 0.707031 -3.535156 2.945312 0.03125 5.308594 -0.515625 C 5.410156 -0.523438 5.191406 -0.609375 4.859375 -0.785156 C 6.355469 -0.511719 8.003906 -0.878906 9.171875 -1.832031 C 9.292969 -1.636719 8.097656 -0.992188 8.097656 -0.992188 C 9.410156 0.664062 16.945312 -10.464844 17.480469 -11.460938 C 18.652344 -13.464844 19.398438 -15.53125 20.453125 -17.628906 C 21.25 -19.175781 22.523438 -21.191406 23.414062 -22.851562 C 23.378906 -22.113281 23.472656 -21.179688 23.472656 -21.179688 C 22.171875 -15.066406 21.027344 -8.441406 24.121094 -2.546875 C 25.566406 0.464844 28.660156 3.105469 32.136719 2.140625 C 35.207031 1.316406 37.515625 -1.953125 39.15625 -4.527344 C 41.183594 -7.453125 42.871094 -10.664062 44.542969 -13.976562 C 45.9375 -16.945312 47.226562 -19.90625 48.277344 -23.160156 C 48.917969 -25.21875 50.972656 -27.832031 50.535156 -30.207031 Z M 20.742188 -26.585938 C 20.292969 -25.808594 19.84375 -25.027344 19.496094 -24.257812 L 17.164062 -20.148438 C 15.648438 -17.375 14.015625 -14.695312 12.269531 -12.109375 C 11.820312 -11.332031 9.636719 -7.863281 8.566406 -8.078125 C 6.953125 -8.445312 8.09375 -14.019531 8.222656 -14.871094 C 8.394531 -16.355469 12.355469 -32.914062 13.785156 -33.367188 C 11.898438 -33.292969 7.6875 -13.875 7.527344 -12.28125 C 7.867188 -17.460938 9.257812 -22.636719 10.882812 -27.519531 C 11.796875 -30.023438 13.78125 -36.625 17.21875 -36.957031 C 19.089844 -37.136719 19.878906 -33.328125 20.3125 -32.109375 C 20.1875 -32.308594 18.957031 -35.234375 18.863281 -35.121094 C 18.386719 -34.65625 21.019531 -29.132812 21.101562 -28.300781 C 21.179688 -27.46875 21.179688 -27.46875 20.742188 -26.585938 Z M 23.628906 -21.71875 C 23.628906 -21.71875 23.800781 -23.207031 23.875 -23.527344 L 24.324219 -24.304688 Z M 21.441406 -28.019531 L 21.34375 -29.058594 C 21.695312 -28.671875 21.726562 -28.359375 21.441406 -28.019531 Z M 21.441406 -28.019531 "/></g></g></g><g fill="#f1efef" fill-opacity="1"><g transform="translate(221.662404, 124.206984)"><g><path d="M -7.546875 -4.070312 L 0.453125 -1.320312 L 0.851562 -2.472656 L -5.90625 -4.792969 L -5.898438 -4.824219 L 1.941406 -5.648438 L 2.203125 -6.414062 L -3.5 -11.890625 L -3.496094 -11.90625 L 3.289062 -9.574219 L 3.691406 -10.742188 L -4.308594 -13.492188 L -4.894531 -11.785156 L 0.5625 -6.558594 L -6.953125 -5.792969 Z M -7.546875 -4.070312 "/></g></g></g><g fill="#f1efef" fill-opacity="1"><g transform="translate(225.552817, 112.982879)"><g><path d="M -6.109375 -6.414062 L -6.710938 -5.335938 L 0.679688 -1.21875 L 1.289062 -2.3125 L -2.160156 -9.890625 L 3.691406 -6.628906 L 4.292969 -7.707031 L -3.097656 -11.824219 L -3.695312 -10.746094 L -0.199219 -3.121094 Z M -6.109375 -6.414062 "/></g></g></g><g fill="#f1efef" fill-opacity="1"><g transform="translate(230.36287, 104.627025)"><g/></g></g><g fill="#f1efef" fill-opacity="1"><g transform="translate(232.442523, 101.373031)"><g><path d="M 3.546875 -3.714844 C 5.203125 -5.546875 5.078125 -8.246094 3.21875 -9.921875 C 1.417969 -11.546875 -1.289062 -11.410156 -2.921875 -9.597656 C -4.601562 -7.742188 -4.453125 -5.066406 -2.59375 -3.390625 C -0.808594 -1.777344 1.898438 -1.890625 3.546875 -3.714844 Z M 2.757812 -4.46875 C 1.515625 -3.09375 -0.476562 -3.183594 -1.792969 -4.371094 C -3.109375 -5.5625 -3.375 -7.488281 -2.144531 -8.851562 C -0.914062 -10.21875 1.097656 -10.128906 2.417969 -8.9375 C 3.722656 -7.761719 3.964844 -5.808594 2.757812 -4.46875 Z M 2.757812 -4.46875 "/></g></g></g><g fill="#f1efef" fill-opacity="1"><g transform="translate(238.75955, 94.285183)"><g><path d="M -0.308594 -1.113281 L 1.996094 1.75 L 2.933594 0.996094 L 1.296875 -1.042969 L 6.519531 -5.242188 L 8.15625 -3.203125 L 9.082031 -3.949219 L 6.757812 -6.839844 L 5.992188 -6.222656 L 1.378906 -11.964844 L -3.128906 -8.339844 L -1.050781 -5.050781 C -0.0507812 -3.476562 0.65625 -1.890625 -0.28125 -1.136719 Z M -1.589844 -8.171875 L 1.101562 -10.335938 L 5.03125 -5.449219 L 1.140625 -2.320312 C 1.363281 -3.332031 0.535156 -4.820312 -0.0429688 -5.738281 Z M -1.589844 -8.171875 "/></g></g></g><g fill="#f1efef" fill-opacity="1"><g transform="translate(246.139216, 88.249281)"><g><path d="M 6.496094 -8.558594 C 5.410156 -10.476562 2.980469 -11.578125 0.886719 -10.390625 C -0.503906 -9.601562 -0.921875 -8.308594 -0.988281 -7.050781 L -1.894531 -8.648438 L -2.957031 -8.046875 L 3.265625 2.9375 L 4.34375 2.328125 L 1.429688 -2.8125 C 2.554688 -2.210938 3.824219 -2.023438 5.191406 -2.792969 C 7.285156 -3.980469 7.617188 -6.574219 6.496094 -8.558594 Z M 4.429688 -3.621094 C 2.875 -2.738281 1.03125 -3.480469 0.171875 -4.996094 C -0.660156 -6.472656 -0.3125 -8.453125 1.207031 -9.3125 C 2.832031 -10.234375 4.539062 -9.4375 5.40625 -7.90625 C 6.289062 -6.347656 6.058594 -4.542969 4.429688 -3.621094 Z M 4.429688 -3.621094 "/></g></g></g><g fill="#f1efef" fill-opacity="1"><g transform="translate(254.728737, 83.367165)"><g><path d="M 3.339844 3.195312 L 4.582031 2.722656 L 5.550781 -11.136719 L 4.304688 -10.667969 L 3.875 -3.511719 L -1.339844 -8.535156 L -2.675781 -8.03125 L 3.710938 -2.011719 Z M 3.339844 3.195312 "/></g></g></g><g fill="#f1efef" fill-opacity="1"><g transform="translate(262.66027, 80.133896)"><g><path d="M 6.3125 -5.382812 L 10.863281 -2.074219 L 12.511719 -2.390625 L 7.632812 -5.894531 L 10.832031 -10.679688 L 9.273438 -10.382812 L 6.226562 -5.832031 L 6.101562 -5.808594 L 5.371094 -9.636719 L 4.171875 -9.410156 L 4.902344 -5.582031 L 4.777344 -5.558594 L 0.265625 -8.664062 L -1.289062 -8.367188 L 3.445312 -5.09375 L 0.203125 -0.0390625 L 1.851562 -0.355469 L 4.863281 -5.105469 L 4.988281 -5.128906 L 5.757812 -1.097656 L 6.957031 -1.328125 L 6.1875 -5.359375 Z M 6.3125 -5.382812 "/></g></g></g><g fill="#f1efef" fill-opacity="1"><g transform="translate(274.528641, 77.9452)"><g><path d="M 2.066406 4.132812 L 3.394531 4.109375 L 8.984375 -8.609375 L 7.652344 -8.585938 L 4.832031 -1.996094 L 1.617188 -8.488281 L 0.191406 -8.464844 L 4.171875 -0.640625 Z M 2.066406 4.132812 "/></g></g></g><g fill="#f1efef" fill-opacity="1"><g transform="translate(283.200283, 77.743838)"><g><path d="M 8.109375 -1.804688 C 7.628906 -0.925781 6.703125 -0.0703125 5.195312 -0.265625 C 3.515625 -0.484375 2.523438 -1.957031 2.535156 -3.535156 L 6.496094 -3.019531 L 6.632812 -4.089844 L 2.707031 -4.601562 C 3.148438 -6.027344 4.472656 -7.007812 6.046875 -6.800781 C 7.539062 -6.609375 8.234375 -5.574219 8.445312 -4.621094 L 9.558594 -4.941406 C 9.285156 -6.300781 8.164062 -7.613281 6.183594 -7.871094 C 3.8125 -8.179688 1.648438 -6.542969 1.332031 -4.09375 C 1.003906 -1.578125 2.652344 0.488281 5.039062 0.800781 C 7.066406 1.0625 8.460938 0.046875 9.105469 -1.210938 Z M 8.109375 -1.804688 "/></g></g></g><g fill="#f1efef" fill-opacity="1"><g transform="translate(291.82964, 78.652946)"><g><path d="M 3.839844 -7.667969 L 1.332031 0.414062 L 2.496094 0.773438 L 4.613281 -6.046875 L 4.644531 -6.039062 L 5.703125 1.769531 L 6.476562 2.011719 L 11.78125 -3.855469 L 11.796875 -3.851562 L 9.667969 3 L 10.847656 3.367188 L 13.355469 -4.710938 L 11.632812 -5.246094 L 6.570312 0.363281 L 5.578125 -7.125 Z M 3.839844 -7.667969 "/></g></g></g><g fill="#f1efef" fill-opacity="1"><g transform="translate(303.159141, 82.201063)"><g><path d="M 4.492188 2.492188 C 6.683594 3.628906 9.261719 2.824219 10.414062 0.601562 C 11.53125 -1.546875 10.710938 -4.132812 8.546875 -5.257812 C 6.324219 -6.410156 3.777344 -5.589844 2.621094 -3.367188 C 1.511719 -1.230469 2.3125 1.359375 4.492188 2.492188 Z M 5.023438 1.535156 C 3.375 0.679688 2.960938 -1.265625 3.777344 -2.839844 C 4.59375 -4.417969 6.390625 -5.160156 8.023438 -4.316406 C 9.652344 -3.46875 10.078125 -1.5 9.261719 0.0742188 C 8.449219 1.636719 6.625 2.367188 5.023438 1.535156 Z M 5.023438 1.535156 "/></g></g></g><g fill="#f1efef" fill-opacity="1"><g transform="translate(311.626864, 86.564161)"><g><path d="M 4.175781 -2.246094 C 5.210938 -3.667969 7.09375 -4.117188 8.550781 -3.050781 C 9.765625 -2.164062 9.867188 -0.933594 9.589844 0.0078125 L 10.742188 0.257812 C 11.160156 -1.066406 10.804688 -2.757812 9.195312 -3.933594 C 7.265625 -5.347656 4.582031 -4.953125 3.121094 -2.957031 C 1.628906 -0.910156 2.078125 1.695312 4.019531 3.117188 C 5.671875 4.324219 7.382812 4.101562 8.550781 3.308594 L 7.960938 2.289062 C 7.117188 2.828125 5.90625 3.140625 4.679688 2.242188 C 3.183594 1.148438 3.136719 -0.828125 4.175781 -2.246094 Z M 4.175781 -2.246094 "/></g></g></g><g fill="#f1efef" fill-opacity="1"><g transform="translate(318.73607, 91.707403)"><g><path d="M 5.636719 -1.992188 L 7.800781 -4.199219 L 6.917969 -5.0625 L 0.996094 0.976562 L 3.902344 3.828125 C 5.125 5.023438 6.84375 5.46875 8.183594 4.097656 C 9.527344 2.730469 8.78125 1.089844 7.550781 -0.117188 Z M 2.644531 1.0625 L 4.894531 -1.234375 L 6.796875 0.628906 C 7.554688 1.371094 8.101562 2.398438 7.269531 3.246094 C 6.359375 4.171875 5.3125 3.679688 4.589844 2.96875 Z M 2.644531 1.0625 "/></g></g></g><g fill="#f1efef" fill-opacity="1"><g transform="translate(324.87206, 97.86128)"><g/></g></g><g fill="#f1efef" fill-opacity="1"><g transform="translate(327.458979, 100.884195)"><g><path d="M 8.066406 -4.597656 L 11.21875 -3.152344 L 2.140625 3.105469 L 2.878906 4.175781 L 13.089844 -2.867188 L 12.371094 -3.910156 L 8.542969 -5.636719 Z M 8.066406 -4.597656 "/></g></g></g><g fill="#f1efef" fill-opacity="1"><g transform="translate(331.085562, 105.844981)"><g><path d="M 2.273438 4.761719 C 3.25 6.683594 5.347656 8.085938 7.382812 7.054688 C 8.542969 6.464844 9.226562 5.121094 8.890625 3.375 C 9.953125 4.488281 11.421875 4.683594 12.464844 4.152344 C 14.429688 3.15625 14.410156 0.699219 13.5625 -0.96875 C 12.738281 -2.59375 10.710938 -4.066406 8.789062 -3.09375 C 7.839844 -2.613281 7 -1.332031 7.300781 0.238281 C 6.058594 -1.015625 4.597656 -1.304688 3.4375 -0.714844 C 1.335938 0.351562 1.3125 2.867188 2.273438 4.761719 Z M 12.515625 -0.4375 C 13.0625 0.636719 13.113281 2.386719 11.828125 3.039062 C 10.460938 3.734375 9.027344 2.523438 8.546875 1.578125 C 8.066406 0.632812 7.929688 -1.21875 9.328125 -1.925781 C 10.613281 -2.578125 11.984375 -1.484375 12.515625 -0.4375 Z M 3.320312 4.230469 C 2.710938 3.03125 2.566406 1.203125 4.0625 0.441406 C 5.503906 -0.289062 6.96875 0.921875 7.558594 2.078125 C 8.160156 3.265625 8.242188 5.144531 6.789062 5.882812 C 5.332031 6.621094 3.910156 5.390625 3.320312 4.230469 Z M 3.320312 4.230469 "/></g></g></g><g fill="#f1efef" fill-opacity="1"><g transform="translate(335.463035, 114.782014)"><g/></g></g><g fill="#f1efef" fill-opacity="1"><g transform="translate(336.964817, 118.363407)"><g><path d="M 4.648438 0.933594 C 6.351562 0.503906 8.085938 1.359375 8.527344 3.109375 C 8.898438 4.570312 8.1875 5.582031 7.378906 6.128906 L 8.105469 7.054688 C 9.269531 6.304688 10.078125 4.777344 9.589844 2.839844 C 9.003906 0.523438 6.6875 -0.886719 4.292969 -0.28125 C 1.832031 0.339844 0.515625 2.632812 1.105469 4.964844 C 1.605469 6.949219 3.0625 7.871094 4.472656 8.003906 L 4.667969 6.84375 C 3.671875 6.71875 2.542969 6.1875 2.167969 4.714844 C 1.714844 2.917969 2.941406 1.367188 4.648438 0.933594 Z M 4.648438 0.933594 "/></g></g></g><g fill="#f1efef" fill-opacity="1"><g transform="translate(339.165237, 126.844479)"><g><path d="M 4.714844 8.445312 C 4.84375 8.445312 4.984375 8.433594 5.125 8.417969 C 7.585938 8.171875 9.308594 6.613281 9.046875 4.011719 C 8.8125 1.648438 6.585938 0.121094 4.300781 0.347656 C 1.875 0.59375 0.117188 2.613281 0.363281 5.058594 C 0.511719 6.539062 1.421875 7.820312 2.894531 8.402344 L 3.402344 7.429688 C 2.394531 7.050781 1.574219 6.164062 1.449219 4.933594 C 1.285156 3.292969 2.402344 1.894531 4.03125 1.632812 Z M 5.074219 1.546875 C 6.5 1.609375 7.828125 2.65625 7.976562 4.121094 C 8.136719 5.726562 7.144531 6.800781 5.632812 7.109375 Z M 5.074219 1.546875 "/></g></g></g><g fill="#f1efef" fill-opacity="1"><g transform="translate(340.148428, 135.623243)"><g><path d="M 3.683594 10.09375 C 5.882812 10.21875 8.121094 8.773438 8.257812 6.367188 C 8.347656 4.769531 7.484375 3.722656 6.464844 2.984375 L 8.300781 3.085938 L 8.367188 1.867188 L -4.238281 1.15625 L -4.308594 2.390625 L 1.59375 2.722656 C 0.476562 3.34375 -0.371094 4.3125 -0.457031 5.875 C -0.59375 8.28125 1.40625 9.964844 3.683594 10.09375 Z M 0.648438 5.683594 C 0.75 3.898438 2.367188 2.75 4.109375 2.851562 C 5.800781 2.945312 7.277344 4.3125 7.179688 6.054688 C 7.074219 7.921875 5.480469 8.925781 3.722656 8.824219 C 1.9375 8.726562 0.542969 7.550781 0.648438 5.683594 Z M 0.648438 5.683594 "/></g></g></g><g fill="#f1efef" fill-opacity="1"><g transform="translate(339.631421, 145.468062)"><g><path d="M -0.296875 1.363281 L -0.5625 2.570312 L 6.632812 4.144531 L 5.609375 8.820312 L -1.585938 7.242188 L -1.851562 8.449219 L 6.410156 10.261719 L 7.964844 3.171875 Z M -0.296875 1.363281 "/></g></g></g><g fill="#f1efef" fill-opacity="1"><g transform="translate(337.708982, 154.528972)"><g><path d="M 5.164062 10.050781 L 1.84375 8.757812 L 3.609375 4.226562 L 6.929688 5.519531 L 7.378906 4.367188 L -0.503906 1.300781 L -0.953125 2.449219 L 2.589844 3.828125 L 0.824219 8.363281 L -2.71875 6.984375 L -3.167969 8.136719 L 4.71875 11.203125 Z M 5.164062 10.050781 "/></g></g></g><g fill="#f1efef" fill-opacity="1"><g transform="translate(334.334949, 163.266334)"><g><path d="M -0.316406 0.550781 L -1.054688 1.839844 L 0.507812 5.292969 L -0.644531 7.300781 L -3.308594 5.773438 L -3.925781 6.84375 L 3.414062 11.050781 L 5.28125 7.796875 C 6.433594 5.789062 5.671875 4.347656 4.585938 3.726562 C 3.375 3.03125 2.167969 3.417969 1.3125 4.332031 Z M 3.082031 9.4375 L 0.261719 7.820312 L 1.46875 5.71875 C 2.1875 4.46875 3.195312 4.332031 3.921875 4.75 C 4.953125 5.34375 4.789062 6.453125 4.300781 7.304688 Z M 3.082031 9.4375 "/></g></g></g><g fill="#f1efef" fill-opacity="1"><g transform="translate(329.908592, 170.794214)"><g/></g></g><g fill="#f1efef" fill-opacity="1"><g transform="translate(327.802402, 174.032518)"><g><path d="M 0.304688 1.453125 L -0.585938 0.644531 L -6.21875 6.828125 L -5.328125 7.640625 L -0.890625 2.765625 L -0.992188 7.816406 C -1.035156 10.289062 -0.8125 11.667969 0.394531 12.765625 C 2 14.226562 4.273438 13.941406 5.820312 12.242188 C 7.28125 10.640625 7.269531 8.699219 6.382812 7.226562 L 5.230469 7.761719 C 5.871094 9.035156 5.964844 10.273438 4.941406 11.398438 C 3.789062 12.664062 2.214844 12.601562 1.277344 11.75 C 0.386719 10.9375 0.175781 10.039062 0.226562 7.46875 Z M 0.304688 1.453125 "/></g></g></g><g fill="#f1efef" fill-opacity="1"><g transform="translate(321.634287, 181.03959)"><g><path d="M -4.859375 3.609375 C -7.574219 5.71875 -6.941406 9.378906 -5.054688 11.804688 C -3.171875 14.234375 0.160156 15.738281 2.851562 13.648438 C 5.570312 11.542969 4.9375 7.859375 3.050781 5.433594 C 1.167969 3.003906 -2.167969 1.523438 -4.859375 3.609375 Z M 2.152344 12.667969 C 0.0351562 14.308594 -2.683594 12.691406 -4.042969 10.9375 C -5.402344 9.1875 -6.269531 6.210938 -4.15625 4.570312 C -2.027344 2.917969 0.65625 4.542969 2.027344 6.308594 C 3.398438 8.070312 4.265625 11.027344 2.152344 12.667969 Z M 2.152344 12.667969 "/></g></g></g><g fill="#f1efef" fill-opacity="1"><g transform="translate(312.715729, 187.949404)"><g><path d="M -0.207031 1.472656 L -0.769531 0.410156 L -8.15625 4.332031 L -7.59375 5.394531 L -1.773438 2.304688 L -3.570312 7.023438 C -4.441406 9.335938 -4.699219 10.710938 -3.933594 12.152344 C -2.917969 14.066406 -0.679688 14.566406 1.347656 13.488281 C 3.265625 12.472656 3.910156 10.640625 3.570312 8.957031 L 2.304688 9.070312 C 2.480469 10.484375 2.148438 11.683594 0.804688 12.398438 C -0.707031 13.199219 -2.167969 12.609375 -2.761719 11.492188 C -3.324219 10.429688 -3.21875 9.511719 -2.308594 7.109375 Z M -0.207031 1.472656 "/></g></g></g><g fill="#f1efef" fill-opacity="1"><g transform="translate(304.450519, 192.411169)"><g><path d="M -7.625 6.238281 C -7.148438 7.617188 -5.964844 8.332031 -4.519531 8.304688 L -4.511719 8.316406 C -5.460938 9.214844 -5.917969 10.324219 -5.460938 11.660156 C -4.9375 13.171875 -3.113281 14.335938 -0.613281 13.476562 C 1.363281 12.796875 2.300781 11.1875 2.296875 9.464844 L 1.015625 9.347656 C 0.941406 10.683594 0.460938 11.820312 -0.980469 12.3125 C -2.65625 12.890625 -3.875 12.167969 -4.238281 11.121094 C -4.621094 9.996094 -4.003906 8.679688 -2.402344 8.128906 L -1.261719 7.738281 L -1.652344 6.597656 L -2.820312 7 C -4.710938 7.648438 -5.957031 6.988281 -6.371094 5.789062 C -6.746094 4.695312 -6.191406 3.28125 -4.335938 2.644531 C -2.820312 2.125 -1.714844 2.617188 -0.742188 3.738281 L 0.152344 2.828125 C -0.996094 1.398438 -2.722656 0.800781 -4.730469 1.492188 C -7.144531 2.320312 -8.265625 4.363281 -7.625 6.238281 Z M -7.625 6.238281 "/></g></g></g><g fill="#f1efef" fill-opacity="1"><g transform="translate(295.313628, 195.412941)"><g/></g></g></svg>