<svg xmlns="http://www.w3.org/2000/svg" xmlns:xlink="http://www.w3.org/1999/xlink" width="500" zoomAndPan="magnify" viewBox="0 0 375 374.999991" height="500" preserveAspectRatio="xMidYMid meet" version="1.0"><defs><clipPath id="3608e56021"><path d="M 6.644531 68.574219 L 247.394531 68.574219 L 247.394531 309.324219 L 6.644531 309.324219 Z M 6.644531 68.574219 " clip-rule="nonzero"/></clipPath></defs><g clip-path="url(#3608e56021)"><path fill="#ffffff" d="M 127.019531 309.324219 C 60.667969 309.324219 6.644531 255.300781 6.644531 188.949219 C 6.644531 122.59375 60.667969 68.574219 127.019531 68.574219 C 193.375 68.574219 247.394531 122.59375 247.394531 188.949219 C 247.394531 255.300781 193.375 309.324219 127.019531 309.324219 Z M 127.019531 70.351562 C 61.617188 70.351562 8.425781 123.542969 8.425781 188.949219 C 8.425781 254.355469 61.617188 307.542969 127.019531 307.542969 C 192.425781 307.542969 245.617188 254.355469 245.617188 188.949219 C 245.617188 123.542969 192.425781 70.351562 127.019531 70.351562 Z M 127.019531 70.351562 " fill-opacity="1" fill-rule="nonzero"/></g><path stroke-linecap="butt" transform="matrix(0.749961, 0, 0, 0.75, 127.499996, 186.374988)" fill="none" stroke-linejoin="miter" d="M 0.0000051636 1.500016 L 299.026067 1.500016 " stroke="#ffffff" stroke-width="3" stroke-opacity="1" stroke-miterlimit="4"/><path stroke-linecap="butt" transform="matrix(0.662464, 0.353187, -0.352842, 0.661817, 267.663093, 141.386446)" fill="none" stroke-linejoin="miter" d="M -0.00136175 1.500325 L 127.883444 1.501394 " stroke="#ffffff" stroke-width="3" stroke-opacity="1" stroke-miterlimit="4"/><path stroke-linecap="butt" transform="matrix(0.669626, -0.334915, 0.335492, 0.670779, 265.924967, 229.175728)" fill="none" stroke-linejoin="miter" d="M 0.000757325 1.502907 L 127.223525 1.502095 " stroke="#ffffff" stroke-width="3" stroke-opacity="1" stroke-miterlimit="4"/></svg>