<svg xmlns="http://www.w3.org/2000/svg" xmlns:xlink="http://www.w3.org/1999/xlink" width="500" zoomAndPan="magnify" viewBox="0 0 375 374.999991" height="500" preserveAspectRatio="xMidYMid meet" version="1.0"><defs><clipPath id="38ee813e9d"><path d="M 153.515625 106.539062 L 303.515625 106.539062 L 303.515625 256.539062 L 153.515625 256.539062 Z M 153.515625 106.539062 " clip-rule="nonzero"/></clipPath></defs><path stroke-linecap="butt" transform="matrix(-0.749775, -0.00072259, 0.000722806, -0.75, 228.503735, 179.795832)" fill="none" stroke-linejoin="miter" d="M 0.000734414 0.998609 L 209.078985 1.000297 " stroke="#f1efef" stroke-width="2" stroke-opacity="1" stroke-miterlimit="4"/><path stroke-linecap="butt" transform="matrix(-0.60854, -0.430144, 0.432906, -0.612448, 116.702978, 211.327265)" fill="none" stroke-linejoin="miter" d="M -0.000935613 1.000614 L 73.47714 0.999519 " stroke="#f1efef" stroke-width="2" stroke-opacity="1" stroke-miterlimit="4"/><path stroke-linecap="butt" transform="matrix(-0.597281, 0.450289, -0.451493, -0.598877, 118.023352, 144.489015)" fill="none" stroke-linejoin="miter" d="M 0.00204383 1.000722 L 76.205408 1.002481 " stroke="#f1efef" stroke-width="2" stroke-opacity="1" stroke-miterlimit="4"/><g clip-path="url(#38ee813e9d)"><path fill="#f1efef" d="M 228.515625 106.539062 C 269.949219 106.539062 303.515625 140.335938 303.515625 181.539062 C 303.515625 222.742188 269.949219 256.539062 228.515625 256.539062 C 187.082031 256.539062 153.515625 222.972656 153.515625 181.539062 C 153.515625 140.105469 187.3125 106.539062 228.515625 106.539062 Z M 228.515625 251.910156 C 267.40625 251.910156 298.886719 220.429688 298.886719 181.539062 C 298.886719 142.652344 267.40625 111.167969 228.515625 111.167969 C 189.625 111.167969 158.144531 142.652344 158.144531 181.539062 C 158.144531 220.429688 189.859375 251.910156 228.515625 251.910156 Z M 228.515625 251.910156 " fill-opacity="1" fill-rule="nonzero"/></g></svg>