<svg xmlns="http://www.w3.org/2000/svg" xmlns:xlink="http://www.w3.org/1999/xlink" width="500" zoomAndPan="magnify" viewBox="0 0 375 374.999991" height="500" preserveAspectRatio="xMidYMid meet" version="1.0"><defs><clipPath id="a8401be7f2"><path d="M 118.363281 107.757812 L 268.363281 107.757812 L 268.363281 257.757812 L 118.363281 257.757812 Z M 118.363281 107.757812 " clip-rule="nonzero"/></clipPath></defs><path stroke-linecap="butt" transform="matrix(0.749775, 0.00072259, -0.000722806, 0.75, 193.362325, 184.502448)" fill="none" stroke-linejoin="miter" d="M 0.00224075 1.001943 L 209.075276 0.998428 " stroke="#f1efef" stroke-width="2" stroke-opacity="1" stroke-miterlimit="4"/><path stroke-linecap="butt" transform="matrix(0.60854, 0.430144, -0.432906, 0.612448, 305.169241, 152.971044)" fill="none" stroke-linejoin="miter" d="M 0.00100127 0.996913 L 73.474797 0.998823 " stroke="#f1efef" stroke-width="2" stroke-opacity="1" stroke-miterlimit="4"/><path stroke-linecap="butt" transform="matrix(0.597281, -0.450289, 0.451493, 0.598877, 303.852232, 219.809282)" fill="none" stroke-linejoin="miter" d="M 0.00256505 0.99874 L 76.205929 1.000499 " stroke="#f1efef" stroke-width="2" stroke-opacity="1" stroke-miterlimit="4"/><g clip-path="url(#a8401be7f2)"><path fill="#f1efef" d="M 193.363281 257.757812 C 151.925781 257.757812 118.363281 223.960938 118.363281 182.757812 C 118.363281 141.554688 151.925781 107.757812 193.363281 107.757812 C 234.796875 107.757812 268.363281 141.324219 268.363281 182.757812 C 268.363281 224.195312 234.566406 257.757812 193.363281 257.757812 Z M 193.363281 112.386719 C 154.472656 112.386719 122.992188 143.871094 122.992188 182.757812 C 122.992188 221.648438 154.472656 253.128906 193.363281 253.128906 C 232.25 253.128906 263.730469 221.648438 263.730469 182.757812 C 263.730469 143.871094 232.019531 112.386719 193.363281 112.386719 Z M 193.363281 112.386719 " fill-opacity="1" fill-rule="nonzero"/></g></svg>